<svg width="63" height="71" viewBox="0 0 63 71" fill="none" xmlns="http://www.w3.org/2000/svg">
<path d="M43.6579 13.8058C37.4211 13.8058 37.4211 15.778 31.1842 15.778C24.9474 15.778 24.9474 13.8058 18.7105 13.8058C10.3947 13.8058 0 17.7502 0 31.5557C0 53.25 12.4737 70.9999 20.7895 70.9999C27.0263 70.9999 27.0263 69.0277 31.1842 69.0277C35.3421 69.0277 35.3421 70.9999 41.5789 70.9999C49.8947 70.9999 62.3684 53.25 62.3684 31.5557C62.3684 17.7502 51.9737 13.8058 43.6579 13.8058Z" fill="#DD2E44"/>
<path d="M33.2632 13.8058C33.2632 13.8058 39.5 5.91697 49.8948 5.91697C58.2106 5.91697 62.3684 9.86139 62.3684 9.86139C62.3684 9.86139 54.0527 15.778 47.8158 15.778C41.579 15.778 33.2632 13.8058 33.2632 13.8058Z" fill="#77B255"/>
<path d="M31.1844 19.7225C30.633 19.7225 30.1043 19.5147 29.7144 19.1448C29.3245 18.775 29.1055 18.2733 29.1055 17.7503C29.1055 10.9639 31.6002 4.70409 35.9514 0.57823C36.1445 0.394991 36.3736 0.249615 36.6259 0.150398C36.8781 0.0511799 37.1485 6.67572e-05 37.4216 -2.47955e-05C37.6946 -0.000116348 37.965 0.0508156 38.2174 0.149864C38.4697 0.248911 38.699 0.394135 38.8921 0.577244C39.0853 0.760353 39.2385 0.977762 39.3431 1.21706C39.4477 1.45635 39.5016 1.71284 39.5017 1.97188C39.5018 2.23093 39.4481 2.48746 39.3437 2.72683C39.2393 2.96619 39.0862 3.1837 38.8932 3.36694C35.3153 6.75914 33.2634 12.0013 33.2634 17.7503C33.2634 18.2733 33.0443 18.775 32.6545 19.1448C32.2646 19.5147 31.7358 19.7225 31.1844 19.7225Z" fill="#662113"/>
</svg>
