<svg width="89" height="85" viewBox="0 0 89 85" fill="none" xmlns="http://www.w3.org/2000/svg">
<path d="M52.91 21.134C52.91 21.134 70.154 -10.8465 78.3066 5.04411C86.4592 20.9347 68.3484 29.6983 68.3484 29.6983C68.3484 29.6983 87.3422 24.823 88.4283 40.9008C89.5127 56.9549 70.8567 72.156 55.9389 46.9386C62.2701 57.7066 69.4021 80.2142 47.7315 85.0078C40.6804 79.9026 33.3932 64.5413 37.7616 55.5898C26.0112 58.9693 -1.02211 64.8556 1.00466 55.4139C5.2526 45.6373 15.9685 29.8447 31.5835 39.1867C23.1578 27.9053 14.673 9.30841 32.5392 9.01877C37.391 10.5775 52.91 21.134 52.91 21.134Z" fill="#2D7543"/>
</svg>
